<?xml version="1.0" encoding="UTF-8" standalone="no"?>
<!DOCTYPE svg PUBLIC "-//W3C//DTD SVG 1.1//EN"
 "http://www.w3.org/Graphics/SVG/1.1/DTD/svg11.dtd">
<!-- Generated by graphviz version 15.1.1 (20260805.0921)
 -->
<!-- Title: G Pages: 1 -->
<svg width="1270pt" height="319pt"
 viewBox="0.00 0.00 1270.00 319.00" xmlns="http://www.w3.org/2000/svg" xmlns:xlink="http://www.w3.org/1999/xlink">
<g id="graph0" class="graph" transform="scale(1 1) rotate(0) translate(4 315)">
<title>G</title>
<polygon fill="white" stroke="none" points="-4,4 -4,-315 1266.25,-315 1266.25,4 -4,4"/>
<g id="clust1" class="cluster">
<title>cluster_module.dns</title>
<polygon fill="none" stroke="black" points="803.75,-228 803.75,-303 1045.75,-303 1045.75,-228 803.75,-228"/>
<text xml:space="preserve" text-anchor="middle" x="924.75" y="-285.7" font-family="sans-serif" font-size="14.00">module.dns</text>
</g>
<g id="clust2" class="cluster">
<title>cluster_module.gke</title>
<polygon fill="none" stroke="black" points="12.88,-145 12.88,-220 1044.62,-220 1044.62,-145 12.88,-145"/>
<text xml:space="preserve" text-anchor="middle" x="528.75" y="-202.7" font-family="sans-serif" font-size="14.00">module.gke</text>
</g>
<g id="clust3" class="cluster">
<title>cluster_module.vpc</title>
<polygon fill="none" stroke="black" points="8,-8 8,-137 783.75,-137 783.75,-8 8,-8"/>
<text xml:space="preserve" text-anchor="middle" x="395.88" y="-119.7" font-family="sans-serif" font-size="14.00">module.vpc</text>
</g>
<!-- consul_keys.publish_outputs -->
<g id="node1" class="node">
<title>consul_keys.publish_outputs</title>
<polygon fill="none" stroke="black" points="1262.25,-230 1073.75,-230 1073.75,-194 1262.25,-194 1262.25,-230"/>
<text xml:space="preserve" text-anchor="middle" x="1168" y="-206.2" font-family="sans-serif" font-size="14.00">consul_keys.publish_outputs</text>
</g>
<!-- module.dns.google_dns_managed_zone.public -->
<g id="node2" class="node">
<title>module.dns.google_dns_managed_zone.public</title>
<polygon fill="none" stroke="black" points="1037.75,-272 811.75,-272 811.75,-236 1037.75,-236 1037.75,-272"/>
<text xml:space="preserve" text-anchor="middle" x="924.75" y="-248.2" font-family="sans-serif" font-size="14.00">google_dns_managed_zone.public</text>
</g>
<!-- consul_keys.publish_outputs&#45;&gt;module.dns.google_dns_managed_zone.public -->
<g id="edge1" class="edge">
<title>consul_keys.publish_outputs&#45;&gt;module.dns.google_dns_managed_zone.public</title>
<path fill="none" stroke="black" d="M1073.38,-228.3C1063.36,-230.04 1053.08,-231.83 1042.84,-233.62"/>
<polygon fill="black" stroke="black" points="1042.49,-230.12 1033.24,-235.29 1043.69,-237.02 1042.49,-230.12"/>
</g>
<!-- module.gke.google_container_node_pool.main -->
<g id="node4" class="node">
<title>module.gke.google_container_node_pool.main</title>
<polygon fill="none" stroke="black" points="1036.62,-189 812.88,-189 812.88,-153 1036.62,-153 1036.62,-189"/>
<text xml:space="preserve" text-anchor="middle" x="924.75" y="-165.2" font-family="sans-serif" font-size="14.00">google_container_node_pool.main</text>
</g>
<!-- consul_keys.publish_outputs&#45;&gt;module.gke.google_container_node_pool.main -->
<g id="edge2" class="edge">
<title>consul_keys.publish_outputs&#45;&gt;module.gke.google_container_node_pool.main</title>
<path fill="none" stroke="black" d="M1073.38,-196.09C1064.34,-194.55 1055.09,-192.98 1045.84,-191.41"/>
<polygon fill="black" stroke="black" points="1046.51,-187.97 1036.07,-189.75 1045.34,-194.87 1046.51,-187.97"/>
</g>
<!-- module.gke.google_container_cluster.main -->
<g id="node3" class="node">
<title>module.gke.google_container_cluster.main</title>
<polygon fill="none" stroke="black" points="766.38,-189 565.88,-189 565.88,-153 766.38,-153 766.38,-189"/>
<text xml:space="preserve" text-anchor="middle" x="666.12" y="-165.2" font-family="sans-serif" font-size="14.00">google_container_cluster.main</text>
</g>
<!-- module.gke.google_project_iam_member.node_roles -->
<g id="node5" class="node">
<title>module.gke.google_project_iam_member.node_roles</title>
<polygon fill="none" stroke="black" points="520.5,-189 257,-189 257,-153 520.5,-153 520.5,-189"/>
<text xml:space="preserve" text-anchor="middle" x="388.75" y="-165.2" font-family="sans-serif" font-size="14.00">google_project_iam_member.node_roles</text>
</g>
<!-- module.gke.google_container_cluster.main&#45;&gt;module.gke.google_project_iam_member.node_roles -->
<g id="edge3" class="edge">
<title>module.gke.google_container_cluster.main&#45;&gt;module.gke.google_project_iam_member.node_roles</title>
<path fill="none" stroke="black" d="M565.71,-171C554.73,-171 543.4,-171 532.03,-171"/>
<polygon fill="black" stroke="black" points="532.17,-167.5 522.17,-171 532.17,-174.5 532.17,-167.5"/>
</g>
<!-- module.vpc.google_compute_subnetwork.subnet -->
<g id="node10" class="node">
<title>module.vpc.google_compute_subnetwork.subnet</title>
<polygon fill="none" stroke="black" points="507.38,-106 270.12,-106 270.12,-70 507.38,-70 507.38,-106"/>
<text xml:space="preserve" text-anchor="middle" x="388.75" y="-82.2" font-family="sans-serif" font-size="14.00">google_compute_subnetwork.subnet</text>
</g>
<!-- module.gke.google_container_cluster.main&#45;&gt;module.vpc.google_compute_subnetwork.subnet -->
<g id="edge4" class="edge">
<title>module.gke.google_container_cluster.main&#45;&gt;module.vpc.google_compute_subnetwork.subnet</title>
<path fill="none" stroke="black" d="M596.64,-152.51C583.3,-148.79 569.44,-144.84 556.5,-141 523.56,-131.22 487.18,-119.74 456.82,-109.96"/>
<polygon fill="black" stroke="black" points="457.96,-106.65 447.37,-106.91 455.81,-113.31 457.96,-106.65"/>
</g>
<!-- module.gke.google_container_node_pool.main&#45;&gt;module.gke.google_container_cluster.main -->
<g id="edge5" class="edge">
<title>module.gke.google_container_node_pool.main&#45;&gt;module.gke.google_container_cluster.main</title>
<path fill="none" stroke="black" d="M812.68,-171C801.2,-171 789.53,-171 778.06,-171"/>
<polygon fill="black" stroke="black" points="778.17,-167.5 768.17,-171 778.17,-174.5 778.17,-167.5"/>
</g>
<!-- module.gke.google_service_account.node -->
<g id="node6" class="node">
<title>module.gke.google_service_account.node</title>
<polygon fill="none" stroke="black" points="216.12,-189 20.88,-189 20.88,-153 216.12,-153 216.12,-189"/>
<text xml:space="preserve" text-anchor="middle" x="118.5" y="-165.2" font-family="sans-serif" font-size="14.00">google_service_account.node</text>
</g>
<!-- module.gke.google_project_iam_member.node_roles&#45;&gt;module.gke.google_service_account.node -->
<g id="edge6" class="edge">
<title>module.gke.google_project_iam_member.node_roles&#45;&gt;module.gke.google_service_account.node</title>
<path fill="none" stroke="black" d="M256.77,-171C247.12,-171 237.46,-171 227.97,-171"/>
<polygon fill="black" stroke="black" points="228.01,-167.5 218.01,-171 228.01,-174.5 228.01,-167.5"/>
</g>
<!-- module.vpc.google_compute_network.main -->
<g id="node7" class="node">
<title>module.vpc.google_compute_network.main</title>
<polygon fill="none" stroke="black" points="221,-79 16,-79 16,-43 221,-43 221,-79"/>
<text xml:space="preserve" text-anchor="middle" x="118.5" y="-55.2" font-family="sans-serif" font-size="14.00">google_compute_network.main</text>
</g>
<!-- module.vpc.google_compute_router.main -->
<g id="node8" class="node">
<title>module.vpc.google_compute_router.main</title>
<polygon fill="none" stroke="black" points="485.25,-52 292.25,-52 292.25,-16 485.25,-16 485.25,-52"/>
<text xml:space="preserve" text-anchor="middle" x="388.75" y="-28.2" font-family="sans-serif" font-size="14.00">google_compute_router.main</text>
</g>
<!-- module.vpc.google_compute_router.main&#45;&gt;module.vpc.google_compute_network.main -->
<g id="edge7" class="edge">
<title>module.vpc.google_compute_router.main&#45;&gt;module.vpc.google_compute_network.main</title>
<path fill="none" stroke="black" d="M292.04,-43.63C272.71,-45.58 252.21,-47.64 232.35,-49.64"/>
<polygon fill="black" stroke="black" points="232.18,-46.14 222.58,-50.62 232.88,-53.11 232.18,-46.14"/>
</g>
<!-- module.vpc.google_compute_router_nat.main -->
<g id="node9" class="node">
<title>module.vpc.google_compute_router_nat.main</title>
<polygon fill="none" stroke="black" points="775.75,-52 556.5,-52 556.5,-16 775.75,-16 775.75,-52"/>
<text xml:space="preserve" text-anchor="middle" x="666.12" y="-28.2" font-family="sans-serif" font-size="14.00">google_compute_router_nat.main</text>
</g>
<!-- module.vpc.google_compute_router_nat.main&#45;&gt;module.vpc.google_compute_router.main -->
<g id="edge8" class="edge">
<title>module.vpc.google_compute_router_nat.main&#45;&gt;module.vpc.google_compute_router.main</title>
<path fill="none" stroke="black" d="M556.29,-34C536.68,-34 516.26,-34 496.71,-34"/>
<polygon fill="black" stroke="black" points="496.83,-30.5 486.83,-34 496.83,-37.5 496.83,-30.5"/>
</g>
<!-- module.vpc.google_compute_subnetwork.subnet&#45;&gt;module.vpc.google_compute_network.main -->
<g id="edge9" class="edge">
<title>module.vpc.google_compute_subnetwork.subnet&#45;&gt;module.vpc.google_compute_network.main</title>
<path fill="none" stroke="black" d="M269.7,-76.12C257.33,-74.87 244.76,-73.61 232.45,-72.37"/>
<polygon fill="black" stroke="black" points="233.02,-68.91 222.72,-71.39 232.32,-75.87 233.02,-68.91"/>
</g>
</g>
</svg>
